<mxfile host="app.diagrams.net" modified="2020-10-06T13:16:25.943Z" agent="5.0 (Macintosh; Intel Mac OS X 10_15_0) AppleWebKit/537.36 (KHTML, like Gecko) Chrome/80.0.3987.149 Safari/537.36" etag="fqTS9qaXI8lDrXYRvp0C" version="13.7.7" type="github">
  <diagram id="N4MTNLS1efXFRBKk7WWK" name="Page-1">
    <mxGraphModel dx="946" dy="538" grid="0" gridSize="10" guides="1" tooltips="1" connect="1" arrows="1" fold="1" page="1" pageScale="1" pageWidth="827" pageHeight="1169" math="0" shadow="0">
      <root>
        <mxCell id="0" />
        <mxCell id="1" parent="0" />
        <mxCell id="FeZuaP6SKb8tfJxCLoWP-1" value="" style="rounded=1;whiteSpace=wrap;html=1;glass=0;sketch=1;fillColor=#dae8fc;strokeColor=#6c8ebf;" vertex="1" parent="1">
          <mxGeometry x="50" y="330" width="120" height="60" as="geometry" />
        </mxCell>
        <mxCell id="FeZuaP6SKb8tfJxCLoWP-5" value="" style="edgeStyle=orthogonalEdgeStyle;rounded=0;sketch=1;orthogonalLoop=1;jettySize=auto;html=1;" edge="1" parent="1" source="FeZuaP6SKb8tfJxCLoWP-2" target="FeZuaP6SKb8tfJxCLoWP-3">
          <mxGeometry relative="1" as="geometry" />
        </mxCell>
        <mxCell id="FeZuaP6SKb8tfJxCLoWP-2" value="" style="rounded=1;whiteSpace=wrap;html=1;glass=0;sketch=1;fillColor=#f8cecc;strokeColor=#b85450;" vertex="1" parent="1">
          <mxGeometry x="520" y="330" width="120" height="60" as="geometry" />
        </mxCell>
        <mxCell id="FeZuaP6SKb8tfJxCLoWP-4" value="" style="edgeStyle=orthogonalEdgeStyle;rounded=0;orthogonalLoop=1;jettySize=auto;html=1;sketch=1;" edge="1" parent="1" source="FeZuaP6SKb8tfJxCLoWP-3" target="FeZuaP6SKb8tfJxCLoWP-1">
          <mxGeometry relative="1" as="geometry" />
        </mxCell>
        <mxCell id="FeZuaP6SKb8tfJxCLoWP-3" value="" style="rounded=0;whiteSpace=wrap;html=1;glass=0;sketch=1;fillColor=#fff2cc;strokeColor=#d6b656;" vertex="1" parent="1">
          <mxGeometry x="210" y="330" width="260" height="60" as="geometry" />
        </mxCell>
        <mxCell id="FeZuaP6SKb8tfJxCLoWP-6" style="rounded=0;sketch=1;orthogonalLoop=1;jettySize=auto;html=1;exitX=0.25;exitY=0;exitDx=0;exitDy=0;entryX=0.25;entryY=1;entryDx=0;entryDy=0;endArrow=none;endFill=0;" edge="1" parent="1" source="FeZuaP6SKb8tfJxCLoWP-3" target="FeZuaP6SKb8tfJxCLoWP-3">
          <mxGeometry relative="1" as="geometry" />
        </mxCell>
        <mxCell id="FeZuaP6SKb8tfJxCLoWP-7" style="edgeStyle=none;rounded=0;sketch=1;orthogonalLoop=1;jettySize=auto;html=1;exitX=0.5;exitY=0;exitDx=0;exitDy=0;endArrow=none;endFill=0;" edge="1" parent="1" source="FeZuaP6SKb8tfJxCLoWP-3" target="FeZuaP6SKb8tfJxCLoWP-3">
          <mxGeometry relative="1" as="geometry">
            <Array as="points">
              <mxPoint x="340" y="390" />
            </Array>
          </mxGeometry>
        </mxCell>
        <mxCell id="FeZuaP6SKb8tfJxCLoWP-8" style="edgeStyle=none;rounded=0;sketch=1;orthogonalLoop=1;jettySize=auto;html=1;exitX=0.75;exitY=0;exitDx=0;exitDy=0;entryX=0.75;entryY=1;entryDx=0;entryDy=0;endArrow=none;endFill=0;" edge="1" parent="1" source="FeZuaP6SKb8tfJxCLoWP-3" target="FeZuaP6SKb8tfJxCLoWP-3">
          <mxGeometry relative="1" as="geometry" />
        </mxCell>
        <mxCell id="FeZuaP6SKb8tfJxCLoWP-10" value="消费者" style="text;html=1;strokeColor=none;fillColor=none;align=center;verticalAlign=middle;whiteSpace=wrap;rounded=0;glass=0;sketch=1;fontSize=16;" vertex="1" parent="1">
          <mxGeometry x="75" y="345" width="70" height="30" as="geometry" />
        </mxCell>
        <mxCell id="FeZuaP6SKb8tfJxCLoWP-11" value="生产者" style="text;html=1;strokeColor=none;fillColor=none;align=center;verticalAlign=middle;whiteSpace=wrap;rounded=0;glass=0;sketch=1;fontSize=16;labelBackgroundColor=none;labelBorderColor=none;fontFamily=Helvetica;" vertex="1" parent="1">
          <mxGeometry x="545" y="345" width="70" height="30" as="geometry" />
        </mxCell>
        <mxCell id="FeZuaP6SKb8tfJxCLoWP-12" value="队列" style="text;html=1;strokeColor=none;fillColor=none;align=center;verticalAlign=middle;whiteSpace=wrap;rounded=0;glass=0;sketch=1;fontSize=16;" vertex="1" parent="1">
          <mxGeometry x="310" y="280" width="70" height="30" as="geometry" />
        </mxCell>
        <mxCell id="FeZuaP6SKb8tfJxCLoWP-13" value="0" style="text;html=1;strokeColor=none;fillColor=none;align=center;verticalAlign=middle;whiteSpace=wrap;rounded=0;glass=0;labelBackgroundColor=none;sketch=1;fontFamily=Helvetica;fontSize=16;" vertex="1" parent="1">
          <mxGeometry x="220" y="350" width="40" height="20" as="geometry" />
        </mxCell>
        <mxCell id="FeZuaP6SKb8tfJxCLoWP-14" value="1" style="text;html=1;strokeColor=none;fillColor=none;align=center;verticalAlign=middle;whiteSpace=wrap;rounded=0;glass=0;labelBackgroundColor=none;sketch=1;fontFamily=Helvetica;fontSize=16;" vertex="1" parent="1">
          <mxGeometry x="291" y="350" width="40" height="20" as="geometry" />
        </mxCell>
        <mxCell id="FeZuaP6SKb8tfJxCLoWP-15" value="2" style="text;html=1;strokeColor=none;fillColor=none;align=center;verticalAlign=middle;whiteSpace=wrap;rounded=0;glass=0;labelBackgroundColor=none;sketch=1;fontFamily=Helvetica;fontSize=16;" vertex="1" parent="1">
          <mxGeometry x="350" y="350" width="40" height="20" as="geometry" />
        </mxCell>
        <mxCell id="FeZuaP6SKb8tfJxCLoWP-16" value="..." style="text;html=1;strokeColor=none;fillColor=none;align=center;verticalAlign=middle;whiteSpace=wrap;rounded=0;glass=0;labelBackgroundColor=none;sketch=1;fontFamily=Helvetica;fontSize=16;" vertex="1" parent="1">
          <mxGeometry x="414" y="350" width="40" height="20" as="geometry" />
        </mxCell>
        <mxCell id="FeZuaP6SKb8tfJxCLoWP-22" value="" style="edgeStyle=none;rounded=0;sketch=1;orthogonalLoop=1;jettySize=auto;html=1;endArrow=classic;endFill=1;fontFamily=Helvetica;fontSize=16;" edge="1" parent="1" source="FeZuaP6SKb8tfJxCLoWP-17" target="FeZuaP6SKb8tfJxCLoWP-18">
          <mxGeometry relative="1" as="geometry" />
        </mxCell>
        <mxCell id="FeZuaP6SKb8tfJxCLoWP-17" value="发布者" style="rounded=1;whiteSpace=wrap;html=1;glass=0;sketch=1;fillColor=#cdeb8b;strokeColor=#36393d;" vertex="1" parent="1">
          <mxGeometry x="90" y="545" width="120" height="60" as="geometry" />
        </mxCell>
        <mxCell id="FeZuaP6SKb8tfJxCLoWP-26" value="" style="edgeStyle=none;rounded=0;sketch=1;orthogonalLoop=1;jettySize=auto;html=1;endArrow=classic;endFill=1;fontFamily=Helvetica;fontSize=16;exitX=0.983;exitY=0.713;exitDx=0;exitDy=0;exitPerimeter=0;entryX=0;entryY=0.25;entryDx=0;entryDy=0;" edge="1" parent="1" source="FeZuaP6SKb8tfJxCLoWP-18" target="FeZuaP6SKb8tfJxCLoWP-20">
          <mxGeometry relative="1" as="geometry" />
        </mxCell>
        <mxCell id="FeZuaP6SKb8tfJxCLoWP-37" value="接收" style="edgeLabel;html=1;align=center;verticalAlign=middle;resizable=0;points=[];fontSize=16;fontFamily=Helvetica;" vertex="1" connectable="0" parent="FeZuaP6SKb8tfJxCLoWP-26">
          <mxGeometry x="-0.1365" y="-3" relative="1" as="geometry">
            <mxPoint as="offset" />
          </mxGeometry>
        </mxCell>
        <mxCell id="FeZuaP6SKb8tfJxCLoWP-27" value="接收" style="edgeStyle=none;rounded=0;sketch=1;orthogonalLoop=1;jettySize=auto;html=1;endArrow=classic;endFill=1;fontFamily=Helvetica;fontSize=16;exitX=0.983;exitY=0.25;exitDx=0;exitDy=0;exitPerimeter=0;entryX=0;entryY=0.75;entryDx=0;entryDy=0;" edge="1" parent="1" source="FeZuaP6SKb8tfJxCLoWP-18" target="FeZuaP6SKb8tfJxCLoWP-19">
          <mxGeometry relative="1" as="geometry">
            <mxPoint x="486" y="508" as="targetPoint" />
          </mxGeometry>
        </mxCell>
        <mxCell id="FeZuaP6SKb8tfJxCLoWP-30" style="edgeStyle=orthogonalEdgeStyle;rounded=0;sketch=1;orthogonalLoop=1;jettySize=auto;html=1;exitX=0.5;exitY=0;exitDx=0;exitDy=0;entryX=0;entryY=0.5;entryDx=0;entryDy=0;endArrow=none;endFill=0;fontFamily=Helvetica;fontSize=16;startArrow=classic;startFill=1;dashed=1;" edge="1" parent="1" source="FeZuaP6SKb8tfJxCLoWP-18" target="FeZuaP6SKb8tfJxCLoWP-19">
          <mxGeometry relative="1" as="geometry">
            <Array as="points">
              <mxPoint x="354" y="459" />
              <mxPoint x="488" y="459" />
            </Array>
          </mxGeometry>
        </mxCell>
        <mxCell id="FeZuaP6SKb8tfJxCLoWP-35" value="订阅" style="edgeLabel;html=1;align=center;verticalAlign=middle;resizable=0;points=[];fontSize=16;fontFamily=Helvetica;" vertex="1" connectable="0" parent="FeZuaP6SKb8tfJxCLoWP-30">
          <mxGeometry x="0.0745" y="-2" relative="1" as="geometry">
            <mxPoint as="offset" />
          </mxGeometry>
        </mxCell>
        <mxCell id="FeZuaP6SKb8tfJxCLoWP-33" style="edgeStyle=orthogonalEdgeStyle;rounded=0;sketch=1;orthogonalLoop=1;jettySize=auto;html=1;exitX=0.5;exitY=1;exitDx=0;exitDy=0;entryX=0;entryY=0.75;entryDx=0;entryDy=0;endArrow=none;endFill=0;fontFamily=Helvetica;fontSize=16;startArrow=classic;startFill=1;dashed=1;" edge="1" parent="1" source="FeZuaP6SKb8tfJxCLoWP-18" target="FeZuaP6SKb8tfJxCLoWP-20">
          <mxGeometry relative="1" as="geometry" />
        </mxCell>
        <mxCell id="FeZuaP6SKb8tfJxCLoWP-38" value="订阅" style="edgeLabel;html=1;align=center;verticalAlign=middle;resizable=0;points=[];fontSize=16;fontFamily=Helvetica;" vertex="1" connectable="0" parent="FeZuaP6SKb8tfJxCLoWP-33">
          <mxGeometry x="0.0353" y="-2" relative="1" as="geometry">
            <mxPoint as="offset" />
          </mxGeometry>
        </mxCell>
        <mxCell id="FeZuaP6SKb8tfJxCLoWP-18" value="主题&lt;br&gt;（Topic）" style="ellipse;whiteSpace=wrap;html=1;glass=0;labelBackgroundColor=none;sketch=1;fontFamily=Helvetica;fontSize=16;fillColor=#ffe6cc;strokeColor=#d79b00;" vertex="1" parent="1">
          <mxGeometry x="294" y="536" width="120" height="78" as="geometry" />
        </mxCell>
        <mxCell id="FeZuaP6SKb8tfJxCLoWP-19" value="订阅者" style="rounded=1;whiteSpace=wrap;html=1;glass=0;sketch=1;fillColor=#dae8fc;strokeColor=#6c8ebf;" vertex="1" parent="1">
          <mxGeometry x="493" y="429" width="119" height="60" as="geometry" />
        </mxCell>
        <mxCell id="FeZuaP6SKb8tfJxCLoWP-20" value="订阅者" style="rounded=1;whiteSpace=wrap;html=1;glass=0;sketch=1;fillColor=#dae8fc;strokeColor=#6c8ebf;" vertex="1" parent="1">
          <mxGeometry x="499" y="630" width="120" height="60" as="geometry" />
        </mxCell>
        <mxCell id="FeZuaP6SKb8tfJxCLoWP-34" value="发送" style="text;html=1;strokeColor=none;fillColor=none;align=center;verticalAlign=middle;whiteSpace=wrap;rounded=0;glass=0;labelBackgroundColor=none;sketch=1;fontFamily=Helvetica;fontSize=16;" vertex="1" parent="1">
          <mxGeometry x="232" y="538" width="40" height="20" as="geometry" />
        </mxCell>
      </root>
    </mxGraphModel>
  </diagram>
</mxfile>
